<?xml version="1.0" encoding="utf-8" ?><svg xmlns="http://www.w3.org/2000/svg" xmlns:xlink="http://www.w3.org/1999/xlink" width="784" height="1168" viewBox="0 0 784 1168"><path fill="#000000" d="M0 0L784 0L784 1168L0 1168L0 0Z"/><path fill="#F3F2F4" d="M581.967 461.685C585.729 460.702 603.143 456.971 604.595 454.772C606.974 446.968 605.609 418.65 607.394 414.935C607.939 427.775 606.789 443.358 606.615 456.393C613.769 459.331 620.327 461.984 627.645 464.557L628.996 465.285C631.734 466.302 636.463 467.922 638.953 469.277C635.457 468.322 632.386 467.436 628.934 466.304C627.941 474.222 629.15 476.618 628.979 483.709C628.715 494.686 628.894 508.868 627.54 519.622C640.49 524.847 657.99 527.517 672.873 533.563L674.666 534.038L676.015 534.565L677.368 534.601L677.923 534.808C682.156 536.363 694.155 539.026 696.76 540.991C692.753 540.643 681.786 537.128 677.116 536.085C676.657 556.497 675.017 576.641 675.539 597.078C675.828 608.401 675.142 620.118 675.86 631.415C676.385 637.77 676.801 645.168 676.777 651.55C680.122 651.624 689.876 651.658 692.625 652.219L692.66 652.838C688.864 653.436 682.348 652.989 678.239 653.003C678.022 653.265 677.805 653.527 677.587 653.789L678.499 652.969L677.111 653.573L676.886 653.254L676.872 653.315C678.676 654.083 679.984 654.386 681.855 654.868C679.197 655.268 678.716 655.256 676.083 655.044L673.865 654.34L666.88 654.045C654.624 654.993 641.427 654.854 629.823 655.888C630.609 674.599 630.115 693.766 630.123 712.502C630.126 718.44 629.331 730.282 629.702 735.632C633.709 735.747 691.309 738.176 689.119 737.236C687.751 738.685 682.593 738.687 680.235 739.151C684.842 739.547 687.047 739.785 691.625 740.823C686.559 741.133 679.091 740.39 673.648 740.207C673.625 742.202 673.524 744.827 673.602 746.766C684.516 747.049 695.161 747.846 705.833 748.157C711.502 747.981 715.054 748.844 719.721 748.808C727.889 748.886 749.052 750.589 756.903 752.107L756.848 752.396C734.825 752.898 711.867 746.776 689.684 751.709C685.108 752.727 675.761 752.344 673.563 756.335L672.645 756.451L671.778 755.176C669.254 754.913 607.942 763.538 605.514 764.42C604.766 765.78 604.786 765.875 604.619 767.449L604.523 767.105C604.178 765.909 604.162 765.719 603.433 764.652C599.408 764.27 584.532 767.152 579.124 767.811C545.617 771.891 512.015 777.305 478.652 782.007L478.43 782.744L479.086 782.862C482.591 783.504 503.961 787.075 505.626 787.839C495.348 787.388 487.835 785.225 477.773 784.279C477.759 786.307 477.835 790.445 477.585 792.274L477.065 792.668L477.277 793.732L477.465 793.114L477.262 793.621L476.981 793.129L477.377 792.684C476.368 791.454 476.597 786.258 476.576 784.304C471.023 783.165 469.19 783.393 463.549 783.81L467.948 783.414L467.385 783.176C461.678 780.806 455.525 781.309 450.217 779.229C458.478 778.423 467.214 783.76 476.32 781.374C476.115 777.258 476.173 772.722 476.139 768.571L285.564 750.352L285.438 749.883C288.121 749.602 295.977 751.041 299.213 751.167C305.943 751.431 312.816 752.195 319.559 752.691C360.121 755.628 400.644 759.073 441.119 763.024C449.869 763.82 458.666 764.428 467.336 765.853C470.856 766.432 474.515 767.207 476.858 764.047C476.659 763.016 476.834 762.897 476.218 762.267C475.33 761.358 474.012 760.938 472.78 760.814C462.341 759.756 451.808 758.957 441.35 758.11L380.113 753.12L242.609 740.427C242.581 746.653 242.505 752.877 242.383 759.101L241.521 759.521C239.364 759.906 238.948 759.872 237.107 760.949L237.67 760.973C240.469 761.072 241.556 760.753 244.284 760.113L244.237 760.584L241.688 762.008C233.235 763.392 187.324 766.176 182.878 768.693L182.334 770.787L181.679 770.932L181.298 769.347C179.992 768.202 176.31 768.896 174.035 768.998L174.126 768.51C174.537 768.451 174.947 768.388 175.357 768.322C177.99 767.895 180.103 767.672 181.711 765.433C181.911 763.634 181.932 764.3 181.102 762.501C179.993 761.602 173.32 761.262 171.256 761.01C161.157 759.785 151.075 758.421 141.013 756.921C136.512 756.228 120.338 752.559 117.081 755.685C118.837 757.87 166.558 763.427 174.683 766.338L174.773 766.853C171.001 766.974 169.27 765.949 164.81 765.373C149.318 763.371 133.632 761.086 118.145 758.93C117.801 759.122 117.457 759.313 117.113 759.504L116.586 762.108L115.915 762.172L115.6 758.451L115.375 757.074C117.284 751.029 114.384 754.812 112.101 752.047C113.73 750.615 125.281 751.711 129.511 748.958L129.713 747.83C128.106 746.226 127.758 746.568 125.292 746.025C114.334 745.446 91.8834 742.387 82.3021 743.192L81.7244 744.86C79.1709 743.536 71.9113 744.699 68.8486 745.114C68.4134 744.763 68.215 744.33 67.883 743.823L80.9077 742.309C80.6911 737.953 80.1321 731.266 80.7704 727.185C79.4735 727.034 78.4437 727.091 77.4788 726.276L77.9132 724.947C80.484 724.89 82.2321 724.326 84.5514 724.655C85.919 724.841 98.1802 724.469 100.371 724.424C114.427 724.147 128.481 723.74 142.53 723.203C142.108 704.179 142.351 682.797 142.687 663.717C131.497 663.872 119.447 663.373 108.193 663.085L106.902 662.86C105.173 665.284 105.68 667.269 106.05 670.297L105.808 671.306C105.006 669.984 105.065 665.021 104.998 663.154C96.5428 663.538 88.8215 663.573 80.372 663.554C83.0178 662.887 100.902 662.217 104.443 662.042C104.32 655.739 103.596 591.389 102.171 589.67C98.7939 589.299 96.3337 591.232 92.3865 591.155L92.148 590.788C93.6378 589.476 97.6457 590.477 100.455 588.958C103.817 587.14 103.731 574.638 102.059 572.363C95.4582 573.585 87.971 577.14 80.7303 577.483L80.1505 577.917C79.6531 577.942 79.231 578.031 78.813 577.889C81.6122 578.574 83.5222 576.15 85.9961 575.456C91.1802 574.003 98.4357 573.355 103.177 570.969L103.704 570.362C104.506 570.3 104.321 570.301 105.093 570.406C115.235 568.805 130.883 564.229 141.127 561.676C157.089 557.725 173.117 554.047 189.205 550.646C199.642 548.351 209.815 545.805 220.373 544.099C236.775 540.939 253.353 536.857 269.703 533.2C305.511 525.313 341.224 516.999 376.834 508.261L466.69 487.357C469.869 486.668 484.137 482.933 485.617 483.523C488.262 483.553 491.336 483.662 493.937 483.534C488.851 482.058 483.8 480.063 478.529 478.496C483.169 479.136 491.468 481.414 496.043 482.817C496.159 481.585 496.197 480.023 496.976 479.104C498.618 477.165 498.672 474.398 499.197 471.86L500.38 471.732L500.513 482.513C508.847 481.197 517.56 478.953 526 477.862C530.508 477.279 532.824 475.185 538.517 475.419C534.981 476.998 534.457 476.24 530.915 476.887C529.705 477.108 527.235 478.229 525.394 478.612C518.157 480.119 510.533 481.896 503.232 482.989C528.566 490.986 552.839 497.807 578.014 505.46C577.815 497.721 578.999 482.734 578.231 476.604C575.558 475.594 575.637 477.458 574.738 476.24C576.214 475.67 577.248 475.273 578.77 474.854C578.552 471.965 578.851 466.98 578.944 463.936C575.664 464.62 570.017 465.914 566.822 465.667C570.079 464.163 575.455 463.189 579.115 462.318L579.281 460.56L581.019 461.872L581.967 461.685Z"/><path fill="#080808" d="M451.585 739.553C451.695 743.443 449.973 749.619 452.309 751.978C456.86 747.491 455.984 751.204 460.192 751.403C461.118 751.447 463.219 749.902 465.798 750.054L466.963 752.648C470.517 750.17 465.615 652.218 468.415 648.207L469.904 648.625L470.428 648.159C468.941 647.129 468.638 646.867 467.434 645.518C467.277 643.903 467.089 644.628 468.073 643.286C472.215 642.524 492.459 641.808 497.188 641.835C497.143 646.232 497.183 650.63 497.307 655.025C490.712 654.074 475.781 653.113 469.237 653.984C471.251 654.802 493.38 656.409 496.661 656.451C497.181 665.66 496.889 676.459 496.843 685.788L496.609 734.229C491.287 734.59 474.071 735.554 469.895 736.971C477.976 738.911 500.01 735.035 509.483 735.329C509.749 735.582 510.015 735.834 510.281 736.086L510.634 737.442C511.543 735.59 511.073 735.828 512.567 735.065L513.508 735.364L514.171 737.759L514.727 737.632L515.552 734.935C517.627 733.9 520.124 733.866 522.493 733.623C522.652 737.425 523.359 743.872 522.128 747.186C522.559 747.742 522.929 748.215 523.384 748.755C526.111 747.964 527.446 747.408 530.273 747.716C532.735 749.348 530.686 750.052 532.48 750.206C533.61 746.749 534.034 747.538 537.705 747.605C538.202 748.6 537.982 748.193 537.872 749.582L538.611 749.286C539.328 745.8 538.745 737.158 538.885 732.763C545.533 733.717 570.644 735.295 577.611 735.159C577.681 737.896 577.68 741.187 577.976 743.854C576.565 743.998 572.388 744.235 571.407 744.938C573.285 745.184 576.957 745.398 578.29 746.455L578.19 747.805C576.291 749.145 563.825 749.699 560.718 749.944C540.021 751.58 519.367 755.24 498.69 757.174C495.129 757.507 482.787 759.192 479.994 759.117L478.917 758.743C477.388 756.382 479.249 755.835 478.138 753.209L477.445 753.251C477.165 755.74 477.53 755.928 476.15 757.786C473.609 758.758 438.667 755.54 433.647 755.048C430.455 754.424 428.314 753.003 425.354 753.047C421.725 752.339 418.65 752.2 415.033 751.801C364.617 746.229 313.934 744.839 263.429 740.21C256.894 739.611 249.952 739.815 243.529 738.54C242.075 737.424 242.44 736.922 242.082 734.641L241.492 734.634C240.043 740.27 239.385 737.253 234.034 737.7C234.991 737.912 235.624 738.514 236.425 739.11C231.257 742.164 189.792 734.778 181.805 735.494C180.255 735.633 176.681 735.24 175.436 734.003L176.389 732.621C178.519 731.599 182.999 731.696 185.458 731.642C195.432 731.558 204.924 732.977 215.294 732.211C231.023 731.05 229.567 737.651 229.7 720.419C229.845 708.012 229.808 695.604 229.589 683.199C229.532 679.817 228.6 661.559 229.843 659.919L233.064 659.599L233.27 658.949L229.727 658.203C229.276 657.011 229.321 657.634 229.816 656.275C238.44 654.261 261.407 653.956 270.836 653.478L325.718 650.701L369.411 648.346C374.47 648.074 389.22 645.982 392.752 648.902C391.365 649.644 308.931 654.139 298.713 654.786L298.68 656.073C329.445 654.366 362.114 653.593 392.705 651.153C389.563 668.824 392.346 697.728 392.425 716.549C392.411 721.261 393.322 739.478 391.537 741.997L391.719 744.103L392.962 746.716L393.475 746.892C393.63 746.513 394.428 744.707 394.568 744.704C397.906 744.63 403.302 745.141 406.247 743.361L407.04 742.735C415.55 742.453 424.054 741.24 432.583 740.965C438.014 740.79 435.329 741.649 437.285 742.744L438.117 740.937C439.626 739.907 449.076 739.692 451.585 739.553Z"/><path fill="#080808" d="M298.68 656.073C329.445 654.366 362.114 653.593 392.705 651.153C389.563 668.824 392.346 697.728 392.425 716.549C392.411 721.261 393.322 739.478 391.537 741.997C385.181 740.161 369.476 739.097 362.834 740.234C336.771 738.526 310.836 735.961 284.693 735.657C280.681 735.61 276.409 735.315 272.492 734.454C272.428 726.424 272.484 718.393 272.66 710.365C272.115 694.668 272.496 675.485 272.625 659.689L272.745 657.764C279.013 656.484 291.38 656.783 298.68 656.073Z"/><path fill="#363537" d="M272.625 659.689L273.497 661.909C273.861 667.092 273.888 674.988 273.726 680.351C271.646 684.057 274.458 703.963 272.66 710.365C272.115 694.668 272.496 675.485 272.625 659.689Z"/><path fill="#CFCFD1" d="M273.497 661.909L274.537 661.447C275.884 663.744 275.629 678.378 273.726 680.351C273.888 674.988 273.861 667.092 273.497 661.909Z"/><path fill="#F3F2F4" d="M260.611 661.351C259.239 660.366 258.286 660.584 256.51 660.401L256.273 659.789C259.828 657.834 259.203 656.485 261.148 655.414C262.015 656.351 262.093 656.622 263.317 656.975C264.157 656.374 264.479 656.151 265.212 655.407L265.742 654.863C266.906 655.35 267.084 655.838 267.687 656.862L269.088 657.069C270.741 656.375 270.217 656.592 271.265 654.537L271.886 654.437L272.643 657.056L272.745 657.764L272.625 659.689C272.496 675.485 272.115 694.668 272.66 710.365C272.484 718.393 272.428 726.424 272.492 734.454L271.621 735.493C266.493 734.658 261.553 736.972 257.875 734.018L259.857 733.075C260.028 731.096 260.143 730.646 259.424 728.82C255.294 727.36 244.903 729.234 240.197 729.274C236.967 729.301 234.824 729.082 231.549 728.712C237.59 727.517 244.219 727.265 250.362 726.994C250.29 721.962 250.505 716.904 250.664 711.871C250.763 697.311 251.693 677.875 251.262 663.743L251.997 662.819L253.276 661.624C256.98 661.651 255.941 663.637 260.611 661.351Z"/><path fill="#080808" d="M266.347 664.307C268.612 664.515 269.184 664.166 270.662 665.452C271.237 670.377 270.852 682.028 270.836 687.348C270.888 700.758 270.795 714.169 270.557 727.577C268.884 727.4 267.789 727.501 266.606 726.432C266.014 723.489 266.214 712.463 266.198 708.849C266.094 694.002 266.144 679.154 266.347 664.307Z"/><path fill="#080808" d="M254.461 692.487C254.943 686.545 254.381 669.893 255.492 665.758C256.505 665.003 257.58 665.254 258.915 665.306C259.976 666.549 259.424 684.6 259.38 687.473L259.565 692.702C259.496 698.778 260.41 719.565 258.357 723.588L257.377 724.346L255.882 724.101C254.472 721.906 254.396 707.35 254.293 703.845C254.553 700.938 254.432 695.582 254.461 692.487Z"/><path d="M254.461 692.487C254.943 686.545 254.381 669.893 255.492 665.758C256.505 665.003 257.58 665.254 258.915 665.306C259.976 666.549 259.424 684.6 259.38 687.473C257.359 684.745 258.463 678.935 258.218 674.622C257.492 679.722 258.422 689.339 256.543 692.437L256.307 693.029L254.461 692.487Z"/><path fill="#CFCFD1" d="M256.543 692.437C255.654 689.035 255.915 670.166 257.524 667.67C258.494 669.863 258.23 672.16 258.218 674.622C257.492 679.722 258.422 689.339 256.543 692.437Z"/><path d="M261.62 658.189L263.63 658.888C264.83 662.262 264.171 726.826 263.709 734.015L262.677 733.548C260.922 730.987 261.108 666.314 261.62 658.189Z"/><path fill="#363537" d="M266.47 727.995C267.692 728.138 268.497 728.345 269.675 728.63C270.93 730.383 270.522 730.687 270.564 733.14C268.775 733.243 268.511 733.304 266.793 732.913C265.78 731.225 266.285 730.329 266.47 727.995Z"/><path fill="#818084" d="M252.021 712.339L252.327 708.883L253.023 708.579C253.041 712.543 253.428 721.267 252.832 724.602L252.327 724.71C251.31 722.351 251.917 715.316 252.021 712.339Z"/><path fill="#CFCFD1" d="M272.492 734.454C276.409 735.315 280.681 735.61 284.693 735.657C310.836 735.961 336.771 738.526 362.834 740.234L363.136 741.602L362.258 742.163C337.537 740.847 312.526 738.415 287.798 736.752C282.491 736.396 276.901 735.291 271.621 735.493L272.492 734.454Z"/><defs><linearGradient id="gradient_0" gradientUnits="userSpaceOnUse" x1="377.0596" y1="740.01764" x2="377.29092" y2="743.93549"><stop offset="0" stop-color="#AAACB2"/><stop offset="1" stop-color="#D3CFCE"/></linearGradient></defs><path fill="url(#gradient_0)" d="M362.834 740.234C369.476 739.097 385.181 740.161 391.537 741.997L391.719 744.103C386.397 744.102 366.51 743.389 362.258 742.163L363.136 741.602L362.834 740.234Z"/><path fill="#818084" d="M272.643 657.056C277.988 655.846 292.9 654.761 298.713 654.786L298.68 656.073C291.38 656.783 279.013 656.484 272.745 657.764L272.643 657.056Z"/><path fill="#CFCFD1" d="M251.262 663.743C247.544 664.077 241.903 664.144 238.313 663.188C241.307 662.443 248.82 662.667 251.997 662.819L251.262 663.743Z"/><path fill="#818084" d="M233.325 672.131C235.355 673.722 234.365 680.772 234.176 683.39C232.499 681.61 233.243 674.977 233.325 672.131Z"/><path fill="#080808" d="M393.258 650.673C398.009 650.871 403.41 651.985 407.977 652.131C418.124 652.457 427.858 652.773 438.006 653.459L438.702 653.265C439.085 657.79 440.029 660.642 440.386 663.545C441.064 669.051 441.221 683.984 440.198 689.141L439.015 685.296L438.961 685.556L438.404 685.897C438.182 689.123 438.076 691.068 437.368 694.197C437.396 708.931 437.761 724.226 436.715 738.879C427.602 739.376 408.087 739.765 400.081 741.118C398.428 740.896 397.536 740.659 395.916 740.228C396.43 735.502 396.005 731.884 395.667 727.155C394.413 714.961 394.981 699.85 395.091 687.55C395.15 680.968 395.982 664.972 394.659 659.015C394.38 661.683 394.023 664.342 393.588 666.989C392.637 665.472 393.196 653.385 393.258 650.673Z"/><defs><linearGradient id="gradient_1" gradientUnits="userSpaceOnUse" x1="442.65555" y1="667.97723" x2="433.28427" y2="671.49146"><stop offset="0" stop-color="#7D7D80"/><stop offset="1" stop-color="#B6B5B7"/></linearGradient></defs><path fill="url(#gradient_1)" d="M438.006 653.459L438.702 653.265C439.085 657.79 440.029 660.642 440.386 663.545C441.064 669.051 441.221 683.984 440.198 689.141L439.015 685.296L438.961 685.556L438.404 685.897C438.182 689.123 438.076 691.068 437.368 694.197C436.945 677.987 436.895 669.622 438.006 653.459Z"/><path fill="#080808" d="M498.31 618.123C500.637 618.235 503.3 618.197 505.654 618.213L506.939 618.745C534.971 621.707 563.019 624.522 591.081 627.192C595.919 627.651 627.102 629.996 628.484 631.173L629.148 632.592L629.828 632.476C630.141 631.834 630.474 630.756 631.001 630.775C638.896 631.057 651.222 632.574 658.838 633.347C659.127 634.546 659.383 635.753 659.608 636.966L660.178 637.035C660.954 635.207 661.017 634.585 662.74 633.574C664.818 633.13 665.076 633.182 667.115 633.802C668.748 636.593 666.922 639.149 668.292 640.339L668.835 639.839L668.045 640.285L668.843 639.228L668.673 640.184C668.637 637.535 668.125 636.149 669.472 634.422C671.248 634.006 671.432 634.167 673.252 634.722C672.712 639.156 673.141 646.404 673.355 651.051C670.119 650.936 666.252 650.69 663.069 650.698C656.852 650.071 637.349 649.185 629.742 648.252C629.373 648.206 629.965 646.864 628.576 646.036C628.3 646.719 628.04 647.278 627.723 647.942C623.766 648.461 611.104 646.975 606.537 646.482C605.343 645.259 605.698 645.102 605.383 642.978L604.698 642.989C604.493 644.371 604.529 644.791 603.73 645.967C600.634 646.481 582.544 645.587 578.748 645.237L577.215 645.272C570.037 644.604 545.184 644.017 540.019 642.465L539.15 640.562C537.977 641.122 538.473 640.689 537.88 642.16C532.309 642.566 511.087 641.125 504.922 640.553L505.152 640.113L508.619 639.97L509.171 638.744C505.583 638.721 501.959 639.038 498.375 639.291L498.31 618.123Z"/><path fill="#A9A9AD" d="M509.171 638.744C513.682 638.318 517.988 637.763 522.513 638.076L522.516 638.448C518.616 639.539 512.7 639.992 508.619 639.97L509.171 638.744Z"/><path fill="#A9A9AD" d="M505.654 618.213L506.939 618.745C506.887 620.952 507.041 624.802 506.222 626.624C505.512 624.405 505.665 620.669 505.654 618.213Z"/><path fill="#818084" d="M577.215 645.272C577.082 643.229 576.744 641.392 577.484 639.543C578.518 641.062 578.528 643.31 578.748 645.237L577.215 645.272Z"/><path fill="#080808" d="M606.484 649.473C612.444 649.563 622.553 649.659 628.337 650.727C627.175 678.774 627.628 709.347 627.675 737.59L627.503 743.265C623.423 743.593 608.667 745.571 606.115 744.948L607.185 743.735C606.268 736.034 606.022 732.241 606.152 724.116L606.524 724.2L607.078 727.156C607.664 726.395 608.197 725.73 608.707 724.91L609.277 725.515C609.82 719.96 608.595 690.008 607.783 684.465C607.802 672.1 606.977 661.657 606.484 649.473Z"/><path fill="#CFCFD1" d="M629.702 735.632C633.709 735.747 691.309 738.176 689.119 737.236C687.751 738.685 682.593 738.687 680.235 739.151C684.842 739.547 687.047 739.785 691.625 740.823C686.559 741.133 679.091 740.39 673.648 740.207C673.625 742.202 673.524 744.827 673.602 746.766C684.516 747.049 695.161 747.846 705.833 748.157C711.502 747.981 715.054 748.844 719.721 748.808C727.889 748.886 749.052 750.589 756.903 752.107L756.848 752.396C734.825 752.898 711.867 746.776 689.684 751.709C685.108 752.727 675.761 752.344 673.563 756.335L672.645 756.451L671.778 755.176C669.254 754.913 607.942 763.538 605.514 764.42C604.766 765.78 604.786 765.875 604.619 767.449L604.523 767.105C604.178 765.909 604.162 765.719 603.433 764.652C599.408 764.27 584.532 767.152 579.124 767.811C545.617 771.891 512.015 777.305 478.652 782.007L478.43 782.744L479.086 782.862C482.591 783.504 503.961 787.075 505.626 787.839C495.348 787.388 487.835 785.225 477.773 784.279C477.759 786.307 477.835 790.445 477.585 792.274L477.065 792.668L477.277 793.732L477.465 793.114L477.262 793.621L476.981 793.129L477.377 792.684C476.368 791.454 476.597 786.258 476.576 784.304C471.023 783.165 469.19 783.393 463.549 783.81L467.948 783.414L467.385 783.176C461.678 780.806 455.525 781.309 450.217 779.229C458.478 778.423 467.214 783.76 476.32 781.374L477.244 781.711L477.77 780.964C479.508 780.458 484.802 780.049 486.907 779.737C492.836 778.857 498.781 777.942 504.711 777.076L566.517 768.014C576.083 766.694 594.951 764.723 603.24 762.726C604.243 761.459 603.944 758.79 603.944 757.01L605.066 761.385C605.073 759.116 604.989 757.101 605.492 754.873L606.81 754.219C605.308 751.371 604.922 750.334 606.331 747.196C606.743 745.789 606.718 746.52 606.115 744.948C608.667 745.571 623.423 743.593 627.503 743.265L627.675 737.59L629.452 738.137L629.592 737.388L629.702 735.632Z"/><path fill="#080808" d="M629.577 744.631C640.294 743.79 661.653 741.925 671.949 740.106C671.99 742.215 672.344 745.111 671.405 746.817L667.183 747.136L666.674 747.801L667.297 747.934C669.752 748.468 672.431 749 672.318 752.034C671.991 752.389 671.571 752.846 671.056 753.406C649.779 756.964 628.071 759.68 606.667 762.488C606.278 762.539 605.587 762.277 605.378 762.208L605.066 761.385C605.073 759.116 604.989 757.101 605.492 754.873L606.81 754.219C605.308 751.371 604.922 750.334 606.331 747.196C612.932 746.843 620.998 745.74 627.673 744.935L628.486 755.838C628.977 751.951 629.427 748.568 629.577 744.631Z"/><path fill="#080808" d="M629.592 737.388C638.735 738.44 648.365 738.275 657.096 739.415C655.053 740.083 632.434 742.697 629.964 742.481C629.608 740.685 629.512 739.965 629.452 738.137L629.592 737.388Z"/><path d="M673.561 748.454C676.397 748.579 690.491 748.909 691.722 749.987L690.478 750.322C685.689 751.146 678.546 753.575 674.284 752.36C673.15 751.006 673.547 750.6 673.561 748.454Z"/><path fill="#080808" d="M407.08 646.675C412.811 646.151 449.429 642.794 451.875 644.266L452.174 645.366C451.291 646.118 451.441 646.071 450.43 646.605C453.627 648.743 452.047 651.792 452.281 655.33C452.672 661.258 450.035 668.598 450.197 674.271C450.801 695.519 450.724 716.858 451.623 738.089C446.774 738.433 442.691 738.538 437.828 738.569C439.03 720.787 440.425 707.822 440.198 689.141C441.221 683.984 441.064 669.051 440.386 663.545C440.029 660.642 439.085 657.79 438.702 653.265C441.758 653.608 445.608 653.83 448.574 652.988C440.094 651.823 428.278 651.118 419.694 650.662C416.964 649.932 415.601 650.759 413.497 649.3L412.873 648.024L413.465 647.375C412.856 646.89 408.515 646.816 407.08 646.675Z"/><path fill="#080808" d="M602.497 754.756C603.698 755.992 603.594 755.541 603.944 757.01C603.944 758.79 604.243 761.459 603.24 762.726C594.951 764.723 576.083 766.694 566.517 768.014L504.711 777.076C498.781 777.942 492.836 778.857 486.907 779.737C484.802 780.049 479.508 780.458 477.77 780.964L478.361 768.672C489.699 768.863 514.881 764.969 527.613 763.604L575.057 758.473C581.642 757.747 596.602 756.295 602.497 754.756Z"/><path d="M77.9132 724.947C80.484 724.89 82.2321 724.326 84.5514 724.655C82.9593 725.38 82.0618 725.432 81.3657 726.725L82.4966 727.047C94.2331 728.414 106.228 729.082 118 730.138C121.701 730.47 130.464 730.77 133.746 731.373C137.693 731.88 154.901 733.768 157.745 733.521C157.811 736.509 158.251 736.204 156.913 738.44C152.679 741.073 148.416 736.61 144.518 739.541C144.165 741.223 144.458 741.819 144.868 743.547C143.205 745.329 132.606 745.258 130.169 744.423L129.511 744.777C128.222 745.151 126.518 745.587 125.292 746.025C114.334 745.446 91.8834 742.387 82.3021 743.192L81.7244 744.86C79.1709 743.536 71.9113 744.699 68.8486 745.114C68.4134 744.763 68.215 744.33 67.883 743.823L80.9077 742.309C80.6911 737.953 80.1321 731.266 80.7704 727.185C79.4735 727.034 78.4437 727.091 77.4788 726.276L77.9132 724.947Z"/><path fill="#CFCFD1" d="M77.9132 724.947C80.484 724.89 82.2321 724.326 84.5514 724.655C82.9593 725.38 82.0618 725.432 81.3657 726.725L82.4966 727.047L82.911 729.658C85.3031 730.776 95.3167 730.953 98.1536 731.261C103.833 731.877 137.828 733.643 140.884 735.777C135.593 736.032 129.18 734.869 123.842 734.629C110.456 734.027 95.9148 731.734 82.7652 730.965C82.7052 734.119 82.7389 737.938 82.5425 741.031L82.3021 743.192L81.7244 744.86C79.1709 743.536 71.9113 744.699 68.8486 745.114C68.4134 744.763 68.215 744.33 67.883 743.823L80.9077 742.309C80.6911 737.953 80.1321 731.266 80.7704 727.185C79.4735 727.034 78.4437 727.091 77.4788 726.276L77.9132 724.947Z"/><path fill="#818084" d="M82.5425 741.031C84.7345 742.452 109.343 742.798 113.868 743.847C116.041 744.35 126.883 744.814 129.511 744.777C128.222 745.151 126.518 745.587 125.292 746.025C114.334 745.446 91.8834 742.387 82.3021 743.192L82.5425 741.031Z"/><path fill="#080808" d="M240.732 741.217C240.765 746.281 240.443 754.957 241.521 759.521C239.364 759.906 238.948 759.872 237.107 760.949C233.812 760.622 228.883 761.76 225.467 761.829C211.645 762.109 196.836 766.006 183.464 766.957L182.854 766.23C182.978 764.48 182.689 764.459 183.564 763.309C186.608 762.526 194.391 762.191 198.501 761.672L198.865 755.75C203.165 755.456 209.166 756.341 211.941 754.479C213.214 752.705 212.908 750.513 212.933 748.194C216.683 748.214 218.664 748.12 222.378 747.647C224.963 747.624 226.037 748.57 227.938 746.702C228.082 744.93 227.961 744.374 227.717 742.588C228.977 741.026 228.547 741.521 230.995 740.972C233.772 741.607 237.8 741.368 240.732 741.217Z"/><path fill="#080808" d="M498.396 641.684L502.416 642.023C506.776 642.383 519.548 641.937 522.379 644.675C523.439 647.565 522.829 653.312 522.709 656.73C517.879 656.135 506.546 655.006 501.832 655.361C499.791 655.443 499.315 655.404 497.307 655.025C497.183 650.63 497.143 646.232 497.188 641.835L498.396 641.684Z"/><path fill="#A9A9AD" d="M497.188 641.835L498.396 641.684C498.286 645.716 497.702 650.309 498.476 653.994C499.837 655.284 499.668 654.903 501.832 655.361C499.791 655.443 499.315 655.404 497.307 655.025C497.183 650.63 497.143 646.232 497.188 641.835Z"/><path fill="#080808" d="M98.8702 726.173C105.095 726.034 140.6 723.312 143.167 724.981L143.375 727.248C145.544 728.232 145.964 727.217 148.158 727.749L148.608 728.653C153.79 728.624 165.176 729.756 170.342 730.821L166.747 732.256C163.556 732.629 162.103 732.75 158.913 732.634L157.745 733.521C154.901 733.768 137.693 731.88 133.746 731.373L133.868 730.103C123.462 728.592 108.296 728.129 98.8702 726.173Z"/><path fill="#818084" d="M133.868 730.103C137.291 730.512 157.369 731.796 158.913 732.634L157.745 733.521C154.901 733.768 137.693 731.88 133.746 731.373L133.868 730.103Z"/><path fill="#363537" d="M466.69 487.357C469.869 486.668 484.137 482.933 485.617 483.523C488.262 483.553 491.336 483.662 493.937 483.534L493.814 484.916C473.072 488.424 451.987 494.226 431.278 498.194C420.803 500.202 410.587 503.227 399.982 504.794C404.178 503.017 413.219 501.342 417.931 500.193L466.762 488.641L466.69 487.357Z"/><path fill="#A9A9AD" d="M466.69 487.357C469.869 486.668 484.137 482.933 485.617 483.523C483.186 485.336 470.14 488.093 466.762 488.641L466.69 487.357Z"/><path fill="#A9A9AD" d="M675.86 631.415C676.385 637.77 676.801 645.168 676.777 651.55C680.122 651.624 689.876 651.658 692.625 652.219L692.66 652.838C688.864 653.436 682.348 652.989 678.239 653.003C678.022 653.265 677.805 653.527 677.587 653.789L678.499 652.969L677.111 653.573L676.886 653.254L676.872 653.315C678.676 654.083 679.984 654.386 681.855 654.868C679.197 655.268 678.716 655.256 676.083 655.044L673.865 654.34L666.88 654.045C665.755 653.266 664.129 651.672 663.069 650.698C666.252 650.69 670.119 650.936 673.355 651.051C673.141 646.404 672.712 639.156 673.252 634.722C674.922 634.753 674.235 635.01 675.459 634.209L675.86 631.415Z"/><path fill="#CFCFD1" d="M392.425 716.549C392.884 718.747 393.654 725.807 394.077 726.895L395.667 727.155C396.005 731.884 396.43 735.502 395.916 740.228C397.536 740.659 398.428 740.896 400.081 741.118L396.494 741.76C399.742 741.949 404.055 741.923 407.04 742.735L406.247 743.361C403.302 745.141 397.906 744.63 394.568 744.704C394.428 744.707 393.63 746.513 393.475 746.892L392.962 746.716L391.719 744.103L391.537 741.997C393.322 739.478 392.411 721.261 392.425 716.549Z"/><path fill="#636264" d="M394.7 743.056C393.955 738.683 393.803 733.195 394.932 728.898C395.025 731.868 394.895 737.663 395.916 740.228C397.536 740.659 398.428 740.896 400.081 741.118L396.494 741.76C399.742 741.949 404.055 741.923 407.04 742.735L406.247 743.361C402.92 742.97 398.152 743.078 394.7 743.056Z"/><path fill="#636264" d="M349.251 747.823L348.991 747.843C362.6 747.547 383.008 750.013 396.887 750.994C406.127 751.647 415.951 753.386 425.354 753.047C428.314 753.003 430.455 754.424 433.647 755.048C420.604 755.129 403.247 752.787 390.036 751.576C378.026 750.475 360.635 749.96 349.251 747.823Z"/><path fill="#A9A9AD" d="M607.783 684.465C608.595 690.008 609.82 719.96 609.277 725.515L608.707 724.91C607.701 722.333 607.807 709.851 607.76 706.162C607.799 703.021 607.354 694.752 606.905 691.755L606.118 692.184C606.121 689.947 606.646 686.414 607.783 684.465Z"/><path d="M412.873 648.024C405.673 647.73 400.828 647.953 393.813 649.3L393.133 648.155L393.896 647.345C397.47 646.231 403.155 646.6 407.08 646.675C408.515 646.816 412.856 646.89 413.465 647.375L412.873 648.024Z"/><path fill="#080808" d="M606.524 724.2C606.588 720.338 606.438 706.966 607.076 704.333L607.76 706.162C607.807 709.851 607.701 722.333 608.707 724.91C608.197 725.73 607.664 726.395 607.078 727.156L606.524 724.2Z"/><path fill="#636264" d="M606.118 692.184L606.905 691.755C607.354 694.752 607.799 703.021 607.76 706.162L607.076 704.333C606.438 706.966 606.588 720.338 606.524 724.2L606.152 724.116C605.686 714.918 606.117 701.661 606.118 692.184Z"/><path fill="#363537" d="M496.043 482.817C496.159 481.585 496.197 480.023 496.976 479.104C498.618 477.165 498.672 474.398 499.197 471.86L500.38 471.732C498.253 475.723 501.639 481.565 498.113 483.213L496.043 482.817Z"/><path fill="#818084" d="M579.115 462.318C578.596 465.242 579.562 470.436 578.77 474.854C578.552 471.965 578.851 466.98 578.944 463.936C575.664 464.62 570.017 465.914 566.822 465.667C570.079 464.163 575.455 463.189 579.115 462.318Z"/><path fill="#363537" d="M143.167 724.981C144.775 724.199 145.532 724.375 147.385 724.395C149.11 725.43 148.747 724.863 149.215 726.456L148.608 728.653L148.158 727.749C145.964 727.217 145.544 728.232 143.375 727.248L143.167 724.981Z"/><path fill="#363537" d="M170.342 730.821C173.336 730.956 183.118 731.195 185.458 731.642C182.999 731.696 178.519 731.599 176.389 732.621C173.909 732.141 169.427 732.269 166.747 732.256L170.342 730.821Z"/><path fill="#636264" d="M419.694 650.662C416.436 650.746 407.488 651.162 404.797 650.002C407.375 649.405 410.788 649.4 413.497 649.3C415.601 650.759 416.964 649.932 419.694 650.662Z"/><path fill="#080808" d="M201.763 570.095C203.16 569.931 204.512 569.616 205.793 570.115C205.709 578.589 205.763 588.763 204.472 597.08C204.215 593.878 203.432 591.903 202.426 588.845C202.397 592.755 202.504 598.208 202.268 601.989C202.064 613.944 202.02 625.902 202.135 637.859C187.828 638.719 173.534 639.797 159.26 641.091C155.163 641.435 141.479 642.368 138.186 643.052C140.349 643.314 155.374 642.596 157.282 642.181L158.969 643.682C152.194 645.266 130.251 646.365 122.193 647.29C125.773 648.329 143.323 646.132 148.142 645.733L258.451 636.234C263.783 635.799 296.328 632.912 300.16 633.376C300.695 634.136 301.011 634.818 301.335 635.689L301.875 633.407C303.622 632.053 331.176 630.469 335.758 630.029C338.9 629.728 340.686 632.279 343.234 629.428C360.156 628.26 377.071 626.796 394.051 625.694C411.598 624.555 433.344 620.975 450.646 620.922C451.452 621.502 451.708 621.853 452.244 622.687C452.501 622.148 453.001 621.015 453.448 620.953C458.164 620.296 482.062 618.236 485.506 618.76C485.858 619.852 485.851 620.166 486.639 621C486.979 620.055 487.285 619.37 487.692 618.459C489.811 617.795 493.87 617.953 496.268 617.936C496.817 624.221 496.822 632.598 497.014 639.044C494.007 638.932 491.642 638.889 488.641 639.015L488.633 639.374L490.403 640.029C487.464 641.062 450.834 641.562 444.961 641.875L205.754 654.2C181.85 655.553 157.485 657.818 133.553 659.29C124.213 659.864 115.943 661.425 106.057 661.67C107.226 647.281 106.793 632.521 106.965 618.099C107.07 609.316 105.929 602.186 105.164 593.541L105.115 594.945C103.888 592.159 104.028 591.212 104.09 588.137C108.206 588.689 113.196 589.723 117.36 590.488L118.719 590.721C122.09 591.107 125.811 591.409 129.056 592.299L130.971 591.889L131.134 590.714C131.096 590.586 131.059 590.457 131.021 590.329L130.848 589.683C130.129 587.093 129.996 586.933 130.522 584.25C133.725 583.314 134.718 583.373 138.1 583.372C141.06 583.041 154.79 579.584 158.577 578.786L201.763 570.095Z"/><path fill="#818084" d="M201.763 570.095C203.16 569.931 204.512 569.616 205.793 570.115C205.709 578.589 205.763 588.763 204.472 597.08C204.215 593.878 203.432 591.903 202.426 588.845C202.397 592.755 202.504 598.208 202.268 601.989C201.485 598.48 201.782 575.572 201.763 570.095Z"/><path fill="#A9A9AD" d="M130.522 584.25C133.725 583.314 134.718 583.373 138.1 583.372L131.328 585.563C131.896 591.373 131.819 632.597 130.749 637.43C128.449 634.265 131.798 593.87 129.056 592.299L130.971 591.889L131.134 590.714C131.096 590.586 131.059 590.457 131.021 590.329L130.848 589.683C130.129 587.093 129.996 586.933 130.522 584.25Z"/><path fill="#818084" d="M117.36 590.488L118.719 590.721C118.875 595.397 119.345 616.925 117.646 620.085L117.36 590.488Z"/><path fill="#080808" d="M494.286 485.834C496.059 485.468 497.283 484.98 498.909 485.625C499.81 487.516 498.875 506.503 498.763 510.093C497.46 505.381 497.766 505.105 497.44 500.515C497.339 503.576 497.28 506.742 497.118 509.79C495.062 508.829 489.106 506.65 488.212 505.382C487.42 506.396 487.798 507.947 487.855 509.548C488.249 508.807 488.681 508.151 489.209 507.498C491.3 508.109 491.893 508.156 493.616 509.495L493.485 510.115C491.044 510.767 488.535 511.47 486.083 512.042C485.201 509.97 484.881 506.331 484.565 503.974C484.454 506.61 484.294 509.372 484.315 511.999C465.823 515.753 446.573 518.624 427.944 522.112L324.716 542.198C309.779 545.123 294.872 548.197 279.996 551.419C274.659 552.536 260.632 555.712 255.542 555.977C251.883 557.41 240.791 560.59 237.032 560.316C224.834 563.241 212.533 565.714 200.152 567.73C197.297 568.815 181.335 571.896 177.023 572.915C153.012 578.588 128.57 582.677 104.315 587.314L104.306 571.845C133.202 564.041 163.152 558.296 192.21 551.061C195.41 550.264 198.598 550.561 201.879 549.288C194.441 552.511 180.624 555.188 172.409 557.555C162.35 560.453 151.691 562.444 141.782 566.094C139.459 566.95 132.171 567.574 130.331 568.824L130.56 568.99C134.364 568.838 149.123 564.749 153.838 563.585L207.089 550.367C273.834 534.112 342.914 519.959 410.185 505.1C438.307 499.069 466.343 492.646 494.286 485.834Z"/><path fill="#A9A9AD" d="M199.422 566.728C188.489 568.954 177.532 571.059 166.553 573.043C160.082 574.248 152.184 576.072 145.816 576.521C151.311 573.864 248.101 555.681 255.542 555.977C251.883 557.41 240.791 560.59 237.032 560.316C224.834 563.241 212.533 565.714 200.152 567.73L199.422 566.728Z"/><path d="M199.422 566.728C203.993 565.791 234.806 559.31 237.032 560.316C224.834 563.241 212.533 565.714 200.152 567.73L199.422 566.728Z"/><path fill="#080808" d="M606.053 569.827C606.141 563.648 604.251 547.41 605.055 542.676L605.728 542.354L607.836 543.369C609.764 543.802 613.209 544.467 614.975 545.026C615.928 544.417 616.286 543.203 616.865 542.041L625.847 544.303C625.21 559.841 626.243 576.162 626.278 591.779C626.289 596.378 628.189 601.148 628.143 605.825C628.415 613.235 628.309 620.653 628.513 628.032C612.125 626.68 595.928 624.36 579.271 623.014L579.284 616.142L581.369 616.354C583.426 614.855 582.865 598.899 583.157 595.126C585.184 593.846 585.046 595.395 587.831 594.72L587.624 594.092L583.757 592.622L583.051 590.892C581.973 590.93 581.821 591.43 580.768 592.357L579.894 591.948C579.23 588.403 579.844 578.509 580.006 574.446C579.935 573.632 579.843 572.004 579.478 571.351C577.516 567.838 578.827 560.393 577.165 556.942C578.145 554.485 577.703 549.011 577.516 546.404C578.644 545.902 579.658 545.7 580.853 545.382C590.79 544.333 593.329 542.402 604.14 542.669C603.22 564.372 604.541 587.08 603.825 608.917C603.699 612.755 603.72 617.318 604.154 621.131C605.955 618.85 606.106 575.706 606.053 569.827Z"/><path fill="#818084" d="M577.516 546.404C578.644 545.902 579.658 545.7 580.853 545.382C580.8 552.114 580.821 568.443 580.006 574.446C579.935 573.632 579.843 572.004 579.478 571.351C577.516 567.838 578.827 560.393 577.165 556.942C578.145 554.485 577.703 549.011 577.516 546.404Z"/><path fill="#818084" d="M606.053 569.827C606.141 563.648 604.251 547.41 605.055 542.676L605.728 542.354L607.836 543.369C607.889 548.139 609.247 567.454 606.053 569.827Z"/><path fill="#080808" d="M500.709 486.296L578.048 507.777C577.934 512.694 577.72 516.58 578.555 521.459C579.035 517.004 579.216 512.567 579.445 508.094C587.947 511.189 598.895 513.797 607.699 516.493C612.154 517.857 622.703 521.049 626.649 521.654L627.862 522.217C642.903 526.908 658.267 530.744 673.212 535.514C673.329 539.643 674.43 550.798 672.543 553.772C670.59 554.122 670.619 553.732 668.578 552.821C667.718 552.613 667.042 552.523 666.17 552.393C658.653 550.314 663.573 548.93 661.695 543.993C660.478 545.825 661.399 546.881 660.445 549.793C658.251 550.853 641.657 545.525 638.217 544.628L604.271 536.071C583.243 530.698 562.083 525.692 541.151 519.883C536.92 518.709 532.608 516.567 528.507 515.247C522.112 513.188 515.706 511.189 509.31 509.103C512.213 508.643 526.542 506.399 528.262 505.594C522.935 505.295 512.328 507.575 506.638 508.638C506.776 505.63 507.116 501.386 506.737 498.503L506.113 498.165C504.94 500.254 506.037 504.695 505.109 508.156C503.867 508.992 502.733 508.462 500.879 508.212C499.895 506.694 500.643 489.441 500.709 486.296Z"/><path fill="#A9A9AD" d="M666.17 552.393C667.875 550.379 666.355 548.481 668.14 544.337C668.652 545.374 668.576 551.273 668.578 552.821C667.718 552.613 667.042 552.523 666.17 552.393Z"/><path fill="#818084" d="M626.649 521.654L627.862 522.217C627.838 524.252 627.975 528.298 626.763 529.829C626.021 527.597 626.486 524.129 626.649 521.654Z"/><path fill="#080808" d="M196.011 659.514L201.737 658.941L200.72 731.496C193.084 730.002 163.306 728.268 154.947 728.35C153.251 728.177 152.389 728.232 150.918 727.451L150.499 725.951C151.041 724.041 150.828 724.668 153.102 723.307L150.712 722.183C151.37 718.631 151.061 706.812 151.098 702.436C151.205 689.446 151.912 675.998 151.109 663.082C153.071 661.615 190.53 659.951 196.011 659.514Z"/><path fill="#080808" d="M506.792 614.946C507.109 603.416 507.315 591.884 507.409 580.35C507.438 574.433 506.76 545.008 507.847 541.586C510.219 540.638 546.169 548.628 551.556 549.669C552.332 558.394 551.308 577.55 551.367 587.777C545.818 586.851 513.766 581.388 510.802 582.429C520.393 585.031 541.385 588.291 551.362 589.39C550.72 595.482 550.76 614.522 551.116 620.789C540.465 620.179 529.824 619.414 519.196 618.494L520.331 616.578L522.259 616.233L522.473 615.728C519.076 614.76 510.961 615.304 506.792 614.946Z"/><path fill="#080808" d="M228.469 564.67C313.562 545.762 398.787 530.593 484.25 514.026C484.051 520.073 484.16 525.506 484.322 531.562C478.967 530.585 469.586 528.882 464.621 527.038C463.987 525.647 464.118 526.213 464.68 524.38L463.994 524.352L462.304 526.187C461.145 525.386 461.447 525.201 460.956 523.402C460.209 524.536 460.164 524.982 459.824 526.263C457.533 527.376 398.23 538.508 394.878 538.481C394.357 537.387 394.386 537.345 394.178 536.138L393.535 536.303C393.395 537.175 393.389 538.51 392.8 538.686C388.039 540.106 371.829 543.325 367.505 543.541C366.671 542.873 366.672 542.947 366.252 541.977C366.107 542.147 364.584 543.923 364.583 543.924C359.251 545.65 353.404 546.47 347.911 547.653C345.387 548.196 343.609 548.705 341.773 546.879C338.776 550.508 338.138 548.924 334.268 550.198C328.522 552.089 311.046 554.207 306.771 557.421C309.193 557.456 315.943 555.814 318.645 555.233C317.906 570.383 319.039 585.285 318.447 599.32C313.296 599.878 307.835 600.374 302.724 601.042C303.124 595.118 305.021 557.081 302.682 553.71C301.913 557.312 302.11 560.914 302.148 564.596C292.879 564.907 282.269 568.296 272.913 569.273C272.678 569.055 272.442 568.837 272.206 568.619C271.76 566.439 271.657 564.16 272.982 562.257L271.541 557.681L271.017 557.592L270.041 560.372C267.744 561.216 267.59 560.704 265.581 559.125C264.347 559.538 264.342 559.626 263.371 560.42L261.454 560.506C261.405 559.931 261.344 559.358 261.271 558.786L260.804 558.476C258.319 563.209 259.956 566.244 259.577 572.23C255.286 572.863 251.573 573.348 247.363 574.457C245.232 574.834 242.308 574.677 241.177 575.534L240.848 576.948C240.696 576.638 240.17 576.016 239.933 575.712C237.82 575.308 236.117 575.117 234 574.891L235.264 574.092C233.626 572.781 235.298 572.514 232.624 571.132C231.209 570.8 230.096 570.748 229.177 569.692C229.611 567.446 229.534 566.598 228.469 564.67Z"/><path fill="#818084" d="M235.264 574.092C239.339 574.327 239.526 575.156 241.728 571.385L242.237 571.721L242.497 574.199L247.363 574.457C245.232 574.834 242.308 574.677 241.177 575.534L240.848 576.948C240.696 576.638 240.17 576.016 239.933 575.712C237.82 575.308 236.117 575.117 234 574.891L235.264 574.092Z"/><path fill="#080808" d="M564.002 658.965L576.999 658.493C576.873 675.236 578.545 692.091 578.151 708.853C577.959 717.037 577.809 725.225 577.799 733.411C570.373 732.924 562.939 732.588 555.5 732.405C549.938 732.305 544.375 732.314 538.814 732.431C540.008 709.37 539.522 682.933 538.97 659.799C546.79 659.901 556.089 659.29 564.002 658.965Z"/><path fill="#080808" d="M506.717 513.694C530.064 520.456 554.461 525.649 577.947 531.956C582.165 533.089 602.716 538.001 605.056 539.499L604.95 540.107C602.428 540.974 582.651 543.686 580.014 542.871L579.594 541.145L578.347 544.009L578.354 543.058C577.342 544.584 577.667 544.304 577.516 546.404C577.703 549.011 578.145 554.485 577.165 556.942C576.564 567.568 577.049 581.416 577.211 592.13C569.353 590.669 561.487 589.249 553.614 587.869C554.061 575.515 554.579 562.566 554.507 550.243C560.405 551.542 567.31 553.354 573.26 553.282C571.616 551.695 556.887 549.364 553.297 548.439C552.98 547.628 552.701 546.962 552.338 546.171C548.939 549.277 545.375 546.35 541.516 545.779C534.742 544.778 513.973 536.949 508.097 537.519C510.403 538.513 512.729 539.459 515.074 540.357L515.052 540.792C512.383 540.873 509.964 540.422 507.327 540.032C506.499 536.461 506.704 518.591 506.717 513.694Z"/><path fill="#080808" d="M603.704 649.943L604.072 650.323C605.108 673.159 603.5 697.014 603.806 719.97C603.906 727.502 604.184 737.43 603.484 744.733C601.07 746.059 585.654 744.169 581.719 743.887L580.617 743.763C580.374 743.549 580.131 743.335 579.888 743.121C579.768 736.925 580.094 727.481 580.196 721.686C580.417 705.321 580.391 688.954 580.119 672.591C580.019 666.938 580.154 655.985 579.26 650.943L603.704 649.943Z"/><path fill="#080808" d="M659.297 557.461C661.04 559.786 659.694 622.565 659.551 632.062C651.769 630.709 642.96 629.864 635.049 628.941C633.161 628.755 632.171 628.829 630.557 627.814C630.008 624.438 630.338 609.577 630.323 605.479C630.324 590.975 630.057 576.473 629.521 561.979C636.989 560.302 651.331 558.507 659.297 557.461Z"/><path fill="#080808" d="M460.157 528.467L461.351 528.349C467.599 529.73 478.034 532.31 484.219 532.914C485.509 560.709 485.309 588.54 485.99 616.409C480.967 616.83 464.504 619.138 461.549 617.059C459.992 614.331 461.281 594.277 461.36 588.904C461.184 586.698 460.816 586.492 461.724 584.697L463.577 584.176C466.252 583.133 477.73 581.999 482.073 581.13C479.918 580.32 466.653 581.975 463.412 582.33C463.425 577.7 463.204 572.702 463.077 568.042C462.542 562.873 463.081 554.806 462.754 549.055C462.16 549.834 462.05 551.791 461.884 552.904L461.19 552.517C460.878 550.804 460.763 549.805 460.654 548.066L459.853 550.574C459.54 547.877 459.566 540.978 459.503 537.978C458.216 537.189 458.781 536.616 457.072 535.394L455.313 536.175C453.495 536.048 454.246 536.361 452.889 535.462L452.82 534.065C452.403 532.799 452.469 532.607 452.443 531.305C454.507 528.962 456.791 529.08 460.157 528.467Z"/><path fill="#A9A9AD" d="M460.157 528.467L461.351 528.349C460.242 530.34 461.24 539.206 461.468 541.923C461.84 537.722 462.175 534.59 462.897 530.395C464.043 534.463 463.643 562.898 463.077 568.042C462.542 562.873 463.081 554.806 462.754 549.055C462.16 549.834 462.05 551.791 461.884 552.904L461.19 552.517C460.878 550.804 460.763 549.805 460.654 548.066L459.853 550.574C459.54 547.877 459.566 540.978 459.503 537.978C458.216 537.189 458.781 536.616 457.072 535.394L455.313 536.175C453.495 536.048 454.246 536.361 452.889 535.462L452.82 534.065C452.403 532.799 452.469 532.607 452.443 531.305C454.507 528.962 456.791 529.08 460.157 528.467Z"/><path fill="#080808" d="M452.82 534.065C452.403 532.799 452.469 532.607 452.443 531.305C454.507 528.962 456.791 529.08 460.157 528.467L459.587 533.13L459.503 537.978C458.216 537.189 458.781 536.616 457.072 535.394L455.313 536.175C453.495 536.048 454.246 536.361 452.889 535.462L452.82 534.065Z"/><path d="M452.82 534.065C455.143 533.914 457.438 533.939 459.587 533.13L459.503 537.978C458.216 537.189 458.781 536.616 457.072 535.394L455.313 536.175C453.495 536.048 454.246 536.361 452.889 535.462L452.82 534.065Z"/><path fill="#818084" d="M461.36 588.904C461.184 586.698 460.816 586.492 461.724 584.697L463.577 584.176C463.56 593.832 464.431 607.437 464.022 616.28C463.256 613.462 462.799 611.492 462.522 608.6C462.04 603.554 463.323 593.119 461.36 588.904Z"/><path fill="#080808" d="M220.862 656.449L221.607 656.584L222.208 657.517C219.796 658.374 216.024 658.117 215.018 659.489L217.356 660.338C218.03 662.38 217.344 668.065 217.196 670.759C216.121 690.268 218.738 710.349 217.31 729.881C215.378 731.193 207.346 732.055 204.846 732.115C203.848 729.366 205.015 723.808 204.781 721.351C203.739 710.432 206.177 668.692 203.75 661.014L204.28 664.949C203.818 663.141 202.616 659.813 203.166 658.395C205.375 659.169 217.959 657.247 220.862 656.449Z"/><path fill="#080808" d="M495.942 511.148L496.616 512.141C496.716 521.491 497.223 612.086 496.179 613.643C495.753 611.94 495.353 610.386 494.848 608.7C493.99 610.543 494.901 613.941 495.566 615.807C492.974 616.152 490.073 616.173 487.435 616.255C488.119 582.465 487.656 547.129 488.048 513.028L495.942 511.148Z"/><path fill="#080808" d="M373.958 552.572C380.973 551.836 386.378 550.471 393.197 549.288C392.623 562.532 393.369 576.794 393.351 590.165C386.969 590.882 379.9 591.829 373.55 592.32L369.459 592.519C370.162 588.306 369.573 577.301 369.967 571.86C371.506 568.69 369.944 566.023 371.26 564.249C371.555 560.721 370.741 555.64 372.236 553.006L373.958 552.572Z"/><path fill="#CFCFD1" d="M372.236 553.006L373.958 552.572C374.394 563.976 374.121 575.461 373.843 586.863C373.802 588.557 373.487 590.717 373.55 592.32L369.459 592.519C370.162 588.306 369.573 577.301 369.967 571.86C371.506 568.69 369.944 566.023 371.26 564.249C371.555 560.721 370.741 555.64 372.236 553.006Z"/><path fill="#A9A9AD" d="M372.236 553.006C373.735 556.768 372.337 571.429 372.312 576.374C371.472 571.569 371.788 567.352 371.26 564.249C371.555 560.721 370.741 555.64 372.236 553.006Z"/><path fill="#080808" d="M420.482 544.273C421.677 544.031 421.498 544.121 422.737 544.27C423.222 545.762 422.537 581.695 422.518 586.697C416.352 587.559 410.168 588.285 403.97 588.876L402.255 589.067L401.506 588.467C401.039 583.987 401.363 577.69 401.392 572.969L401.412 547.41L420.482 544.273Z"/><path fill="#080808" d="M449.781 538.501L450.888 538.561C452.092 541.659 451.239 578.645 451.213 583.741C444.999 584.12 438.641 584.808 432.431 585.409C432.088 585.448 431.702 585.186 431.288 585.003C430.829 582.009 431.09 574.169 431.107 570.691L431.246 542.103C437.466 541.125 443.648 539.923 449.781 538.501Z"/><path fill="#080808" d="M603.426 469.801C603.695 470.128 603.963 470.455 604.231 470.782C604.515 482.458 604.838 502.439 605.139 513.489C596.863 510.769 587.679 508.39 579.237 506.035C579.604 499.949 579.938 493.86 580.24 487.771L580.422 475.654C586.109 474.697 596.257 471.907 602.234 470.472C601.518 478.508 601.791 488.918 601.79 497.15C603.188 489.218 602.592 478.194 603.426 469.801Z"/><path fill="#080808" d="M401.479 591.055C408.336 590.349 415.751 589.434 422.578 588.908L422.627 620.863C419.598 621.052 400.291 622.732 399.081 622.131L395.952 621.976L395.53 622.315C394.432 620.133 395.372 596.969 395.209 593.064C395.177 592.294 395.713 591.537 396.163 590.931C396.613 591.324 397.191 591.71 397.682 592.065C399.28 591.437 400.223 591.533 401.479 591.055Z"/><defs><linearGradient id="gradient_2" gradientUnits="userSpaceOnUse" x1="404.78937" y1="603.67548" x2="391.77832" y2="609.95782"><stop offset="0" stop-color="#C9C7C1"/><stop offset="1" stop-color="#EFEDF4"/></linearGradient></defs><path fill="url(#gradient_2)" d="M396.163 590.931C396.613 591.324 397.191 591.71 397.682 592.065C399.28 591.437 400.223 591.533 401.479 591.055C401.44 595.428 401.486 602.402 400.937 606.572C400.1 612.934 398.894 615.485 399.081 622.131L395.952 621.976L395.53 622.315C394.432 620.133 395.372 596.969 395.209 593.064C395.177 592.294 395.713 591.537 396.163 590.931Z"/><path fill="#363537" d="M396.163 590.931C397.229 593.708 396.933 619.239 395.952 621.976L395.53 622.315C394.432 620.133 395.372 596.969 395.209 593.064C395.177 592.294 395.713 591.537 396.163 590.931Z"/><path fill="#080808" d="M606.88 471.275C612.554 472.926 622.212 477.17 627.231 477.696C626.547 491.852 626.663 505.46 626.661 519.618C619.882 517.477 612.764 515.638 605.888 513.766C607.285 504.68 606.776 481.743 606.88 471.275Z"/><path fill="#080808" d="M553.583 589.892C561.158 590.929 569.312 592.478 577.007 593.615C577.403 603.355 577.587 613.103 577.558 622.85C573.609 622.715 568.638 622.13 564.618 621.76C560.109 621.254 556.113 621.124 551.593 620.963C551.73 614.817 551.793 609.016 552.488 602.889L552.872 602.821L552.632 602.182L552.68 602.602L553.031 602.863L553.613 613.105L553.583 589.892Z"/><path fill="#080808" d="M450.432 585.418L450.714 585.537C451.866 587.525 451.195 614.053 451.15 618.693C445.5 619.513 435.34 619.668 428.961 620.183C427.85 617.85 428.734 613.329 429.36 610.915L429.571 611.331C430.967 603.176 430.986 595.849 431.061 587.58L450.432 585.418Z"/><path fill="#080808" d="M484.469 760.591C491.673 761.163 504.956 758.394 512.608 757.835C542.949 755.618 572.997 750.614 603.29 747.887C603.58 750.187 604.286 752.426 602.563 754.049C571.564 756.487 540.008 760.416 509.018 763.429C503.836 763.933 486.382 766.636 482.703 766.299C482.457 765.575 482.166 764.923 481.783 764.26L480.847 764.355L479.928 766.533L479.183 766.633C478.021 765.164 478.387 765.635 478.39 763.286C480.484 760.574 482.49 763.431 485.12 762.132C484.994 761.822 484.62 760.84 484.469 760.591Z"/><path fill="#080808" d="M280.144 570.418C283.554 568.49 296.821 566.711 302.108 565.118C302.162 568.475 302.491 577.823 302.087 580.653C301.141 579.772 301.123 579.201 300.792 577.953C300.332 585.976 300.792 593.657 300.467 601.517C294.433 601.907 288.776 602.663 282.776 603.434C282.344 593.306 282.154 583.168 282.206 573.03C283.852 572.704 283.861 572.684 285.376 571.938L285.067 571.83L285.442 571.634C283.944 571.543 281.285 571.519 280.026 570.859L280.144 570.418Z"/><path fill="#080808" d="M205.793 570.115C209.55 570.506 214.119 571.108 217.827 571.296C217.029 583.952 217.359 598.905 217.275 611.764C211.937 612.608 214.109 611.884 209.852 611.163L209.04 613.067L205.752 613.671L205.573 614.132C207.857 614.312 207.881 613.903 209.09 615.127C209.429 617.48 209.546 634.239 208.987 636.103C207.607 637.649 207.371 637.239 204.92 637.608L203.826 637.024C203.123 633.812 203.929 601.11 204.472 597.08C205.763 588.763 205.709 578.589 205.793 570.115Z"/><path fill="#080808" d="M530.434 647.582L531.186 648.022C531.506 650.744 531.2 657.521 531.142 660.531C530.962 668.572 530.851 676.614 530.81 684.657L530.832 724.879C530.84 729.383 531.141 741.495 530.552 745.452C529.248 746.33 527.372 746.212 525.732 746.303L524.95 745.66C524.216 742.964 524.294 651.002 524.917 648.598C526.485 647.618 528.504 647.715 530.434 647.582Z"/><path fill="#080808" d="M498.881 667.827C502.011 667.772 504.881 667.855 507.924 667.071L508.763 667.925C508.987 674.579 509.937 723.852 508.008 727.321C506.207 727.466 500.449 728.112 499.053 727.7C498.464 723.217 498.676 714.028 498.661 709.16C498.134 696.433 498.572 680.714 498.881 667.827Z"/><path fill="#CFCFD1" d="M500.148 720.314C500.252 717.727 500.441 708.895 501.077 706.796C501.852 709.97 501.972 719.824 502.109 723.657C505.519 724.49 505.63 724.03 507.401 726.361C504.913 726.226 503.179 726.689 500.651 726.125L499.924 724.962C500.151 723.153 500.163 722.142 500.148 720.314Z"/><path d="M498.661 709.16L499.276 706.64C500.253 707.871 499.724 717.544 500.148 720.314C500.163 722.142 500.151 723.153 499.924 724.962L500.651 726.125C503.179 726.689 504.913 726.226 507.401 726.361L508.008 727.321C506.207 727.466 500.449 728.112 499.053 727.7C498.464 723.217 498.676 714.028 498.661 709.16Z"/><path fill="#080808" d="M386.88 592.77L393.33 592.187C393.24 602.3 393.406 612.654 393.461 622.786C389.012 622.953 384.261 623.318 379.791 623.579C377.314 623.711 375.101 624.018 372.647 624.34C372.161 613.258 373.536 605.133 373.464 594.293C377.909 593.663 382.413 593.237 386.88 592.77Z"/><path fill="#080808" d="M363.804 554.48L365.099 554.531C366.221 556.331 365.971 588.803 365.999 593.534L352.507 595.068L350.929 595.097C349.546 592.683 350.048 562.222 350.049 557.087C354.464 556.441 359.379 555.358 363.804 554.48Z"/><path fill="#080808" d="M499.922 512.127C501.801 512.468 503.36 512.503 504.733 513.726C505.073 536.057 504.688 558.76 505.074 581.153C505.162 586.266 505.742 611.705 505.12 615.416L498.761 615.121C499.44 593.781 499.116 571.258 499.213 549.865C499.27 537.351 500.109 524.466 499.922 512.127Z"/><path fill="#080808" d="M454.881 647.366C456.618 647.36 457.11 647.387 458.808 647.736C459.437 648.739 458.976 668.52 458.972 671.33L458.958 720.5C458.961 728.819 458.999 737.229 458.914 745.551C458.888 748.04 458.901 747.953 457.586 749.42C456.536 749.104 455.428 748.713 454.381 748.363C452.54 745.92 452.255 649.639 454.881 647.366Z"/><path fill="#080808" d="M363.636 595.667L365.058 595.67C366.428 597.524 365.987 620.558 366.058 625.084C359.526 625.976 353.656 625.666 346.63 626.958L346.709 616.118C346.81 613.366 346.774 599.177 347.733 597.641L348.603 597.705C349.76 600.558 348.314 607.656 349.538 611.53L349.967 611.407L350.375 597.104C354.398 596.503 359.513 596.1 363.636 595.667Z"/><path fill="#080808" d="M299.89 603.164C301.068 604.762 300.563 627.465 300.552 631.007C294.685 631.411 288.814 631.764 282.94 632.067C281.375 629.556 282.47 609.08 282.755 605.013C288.47 604.426 294.181 603.809 299.89 603.164Z"/><path fill="#636264" d="M285.651 611.717C286.65 613.654 286.345 622.073 285.92 624.31L285.25 623.936C284.826 620.683 285.042 614.946 285.651 611.717Z"/><path fill="#080808" d="M461.301 647.574C463.294 647.688 463.741 647.677 465.629 648.229C466.68 650.034 465.811 738.448 465.959 748.103C463.939 748.379 463.009 748.869 461.399 748.142C460.669 740.681 461.284 722.355 461.286 714.122C461.18 691.939 461.185 669.757 461.301 647.574Z"/><path fill="#080808" d="M516.017 657.349C518.02 657.468 520.756 657.396 522.81 657.394C521.165 679.27 522.235 710.372 522.718 732.787L515.524 732.826C515.985 707.67 516.15 682.509 516.017 657.349Z"/><path fill="#080808" d="M315.332 601.362L317.589 601.227L318.343 601.916C319.074 609.37 318.738 621.517 318.804 629.509L305.758 630.614C304.312 630.75 304.136 630.678 302.742 630.481C301.885 628.92 302.676 605.954 302.741 602.65C306.877 602.166 311.178 601.782 315.332 601.362Z"/><path fill="#080808" d="M539.432 644.622C549.487 645.869 566.029 646.095 576.604 647.561C576.946 647.878 577.288 648.196 577.63 648.513C576.953 650.096 576.742 649.755 574.749 650.797C576.454 652.181 576.134 650.5 577.649 653.087C577.557 654.954 577.635 655.199 576.802 656.807C568.726 655.961 547.713 658.11 538.966 659.004C538.996 655.521 538.95 651.959 539.323 648.502L540.734 647.67C539.658 646.498 539.577 646.202 539.432 644.622Z"/><path fill="#080808" d="M232.624 571.132C235.298 572.514 233.626 572.781 235.264 574.092L234 574.891C236.117 575.117 237.82 575.308 239.933 575.712C240.17 576.016 240.696 576.638 240.848 576.948C240.218 587.577 240.951 598.252 240.175 608.694L229.206 610.135C229.148 604.571 228.625 590.121 229.126 585.151C228.797 582.243 227.962 574.538 229.653 572.22C230.318 571.308 231.246 571.423 232.624 571.132Z"/><path fill="#363537" d="M232.624 571.132C235.298 572.514 233.626 572.781 235.264 574.092L234 574.891C231.763 574.576 231.364 574.094 229.823 575.102C228.599 577.825 229.876 581.048 229.126 585.151C228.797 582.243 227.962 574.538 229.653 572.22C230.318 571.308 231.246 571.423 232.624 571.132Z"/><path d="M533.201 647.578C534.937 647.729 536.166 647.62 537.494 648.668C538.108 655.229 537.235 668.691 537.22 675.91L537.016 745.239C535.924 746.163 534.733 746.078 533.422 745.884C532.877 744.879 533.264 654.84 533.201 647.578Z"/><path fill="#080808" d="M661.498 553.677C663.128 553.822 665.621 553.972 666.759 555.056L667.173 631.894L665.99 632.736C663.882 632.444 663.127 632.465 661.217 631.459C660.26 627.843 661.515 621.796 661.37 618.29C660.979 608.846 664.035 559.404 661.498 553.677Z"/><path fill="#080808" d="M668.25 554.699C670.384 555.111 671.375 555.207 673.332 556.27C673.919 557.656 672.96 625.557 672.983 632.408L672.765 632.799C670.738 633.15 671.429 633.32 669.778 632.525C669.109 631 668.902 629.054 668.916 627.386C669.118 603.481 669.715 578.508 668.25 554.699Z"/><path fill="#080808" d="M455.313 536.175L457.072 535.394C458.781 536.616 458.216 537.189 459.503 537.978C459.566 540.978 459.54 547.877 459.853 550.574C460.363 561.145 460.015 572.106 459.615 582.683L453.187 583.269C453.308 571.244 451.983 548.21 452.946 537.95C453.741 537.366 454.53 536.775 455.313 536.175Z"/><defs><linearGradient id="gradient_3" gradientUnits="userSpaceOnUse" x1="343.68588" y1="579.49164" x2="329.3898" y2="576.02484"><stop offset="0" stop-color="#080808"/><stop offset="1" stop-color="#302D30"/></linearGradient></defs><path fill="url(#gradient_3)" d="M340.42 558.552L340.642 558.701C342.089 561.674 339.948 587.043 340.957 591.76C341.325 593.478 340.769 595.359 339.435 596.634C338.219 594.993 338.254 572.599 337.69 568.244C336.915 569.268 337.067 570.805 337.027 572.167C337.143 579.305 337.315 587.152 337.357 594.344C337.365 595.615 336.082 596.673 335.076 597.371C333.28 597.616 333.994 597.859 332.759 597.04C331.924 595.42 332.036 565.095 331.911 560.367C334.593 559.533 337.634 559.06 340.42 558.552Z"/><path fill="#080808" d="M223.46 659.042C225.237 659.221 225.947 659.124 227.371 660.082C227.958 662.108 227.781 675.789 227.785 678.947L227.608 729.991C225.962 730.364 225.816 730.464 224.207 730.136C223.208 727.901 223.483 665.533 223.46 659.042Z"/><path d="M324.618 554.202C332.726 551.713 353.266 548.564 362.177 546.858L404.94 539.096C409.036 538.373 419.476 535.082 422.968 536.838L422.971 536.868L422.488 536.653C421.463 538.128 405.404 540.907 402.121 541.498L368.872 547.414C369.924 553.371 369.866 565.524 369.967 571.86C369.573 577.301 370.162 588.306 369.459 592.519L368.912 592.745C366.643 589.199 368.3 555.949 367.786 548.627C365.076 547.396 331.46 555.159 325.53 556.114L324.316 555.032L324.618 554.202Z"/><path fill="#080808" d="M626.331 544.774C632.163 546.172 656.396 551.537 660.048 553.849L660.126 555.214C658.592 556.183 652.299 556.565 650.098 556.796C643.213 557.797 636.365 559.035 629.565 560.51C629.667 557.432 628.754 553.83 629.047 551.266L628.038 554.505L627.412 554.742C626.766 551.987 626.563 547.702 626.331 544.774Z"/><path fill="#080808" d="M236.925 611.057L238.9 610.909L239.632 611.781C240.272 617.386 239.91 629.775 238.984 635.282C237.808 636.166 234.295 635.986 232.493 636.058C230.926 636.126 230.991 636.174 229.579 635.545C228.888 632.328 229.165 616.229 229.165 611.651L236.925 611.057Z"/><path fill="#080808" d="M247.83 575.69C249.027 575.344 249.162 575.445 250.373 575.592C250.826 576.501 250.631 588.397 250.48 590.052C250.185 593.276 251.21 605.693 249.939 607.582L247.6 607.883C245.907 608.118 244.826 608.423 243.182 607.939C242.513 605.272 242.404 579.979 242.551 576.606C243.554 575.789 246.368 575.805 247.83 575.69Z"/><path fill="#080808" d="M249.872 609.415L250.155 609.516C251.365 611.182 250.461 631.5 250.384 634.936L241.321 635.814L240.441 635.288C239.744 633.296 241.594 626.707 242.062 623.91C242.958 618.544 242.932 615.494 242.887 610.145C244.728 609.812 247.898 609.6 249.872 609.415Z"/><path fill="#080808" d="M455.811 584.62C457.227 584.626 457.827 584.715 459.234 584.932C459.702 586.504 460.158 617.03 459.762 618.019L457.905 618.8C456.147 618.821 454.861 619.038 453.354 618.218C453.019 614.893 452.946 587.594 453.654 585.427L455.811 584.62Z"/><path fill="#363537" d="M131.126 747.706C139.55 747.095 164.731 751.769 174.363 752.772C179.197 753.276 191.349 754.577 195.867 755.446C197.121 757.038 196.739 757.262 196.853 759.579C194.085 758.499 186.966 757.85 183.688 757.387C172.941 755.833 162.178 754.387 151.401 753.05C147.405 752.532 135.66 751.119 132.166 750.076L131.126 747.706Z"/><path fill="#080808" d="M146.48 741.38C148.343 741.793 150.284 741.908 152.18 742.103C168.34 743.77 184.487 745.583 200.675 746.957C203.87 747.229 207.067 747.451 210.219 748.064C211.15 749.659 210.77 750.312 210.683 752.4C202.837 750.412 148.242 745.204 146.66 743.941L146.48 741.38Z"/><path fill="#080808" d="M220.663 744.589C211.7 742.32 162.827 738.987 159.965 737.552C159.865 736.364 159.708 736.113 160.31 735.1C162.793 734.733 180.232 736.757 183.667 737.141C197.148 738.644 210.9 739.5 224.331 740.994C225.629 742.005 225.489 742.907 225.985 744.805L220.663 744.589Z"/><defs><linearGradient id="gradient_4" gradientUnits="userSpaceOnUse" x1="514.78046" y1="695.36981" x2="501.15308" y2="696.01105"><stop offset="0" stop-color="black"/><stop offset="1" stop-color="#030303"/></linearGradient></defs><path fill="url(#gradient_4)" d="M511.81 661.464C509.002 661.522 500.638 662.075 498.745 660.9L498.281 659.716C499.912 658.559 511.436 659.3 514.452 659.223C513.965 676.795 514.246 694.478 513.892 712.041C513.805 716.364 514.156 729.235 513.588 732.787C512.515 733.473 512.136 733.337 510.868 733.274L511.305 731.628C512.274 708.806 510.752 683.566 511.81 661.464Z"/><path fill="#363537" d="M219.465 663.219C219.07 661.394 219.026 661.157 219.768 659.457L220.761 659.26L221.468 660.211C221.928 666.912 221.803 673.91 221.783 680.636C221.736 696.767 221.922 712.921 221.615 729.047C221.6 729.804 220.995 730.418 220.549 730.97L221.145 730.286L220.079 730.391C218.72 725.867 218.332 668.386 219.465 663.219Z"/><path fill="#080808" d="M219.465 663.219C219.07 661.394 219.026 661.157 219.768 659.457L220.761 659.26L221.468 660.211C219.992 668.153 221.669 678.307 220.723 686.75C220.676 685.617 220.405 677.49 220.216 677.049L220.132 677.274C220.022 674.9 219.761 664.766 219.465 663.219Z"/><path fill="#080808" d="M265.774 561.516C267.526 561.844 268.498 561.836 269.784 562.997C270.106 565.296 270.156 567.507 270.096 569.825C269.788 581.605 270.655 593.686 270.125 605.434C268.174 605.649 267.882 605.777 266.047 605.258C265.223 602.206 265.742 566.954 265.774 561.516Z"/><path fill="#080808" d="M278.147 573.956C278.65 576.437 278.312 600.989 277.865 603.52C276.054 604.683 274.266 604.521 272.052 604.638L271.698 575.326L278.147 573.956Z"/><path fill="#080808" d="M148.126 663.339C148.837 663.744 150.154 665.419 150.764 666.121C148.707 668.336 149.483 673.025 149.463 676.268C149.416 686.366 149.281 696.462 149.059 706.557C149.008 710.308 149.143 719.195 148.521 722.372L147.968 722.373C147.328 719.427 147.606 709.242 147.613 705.83L147.597 674.719C147.587 671.616 148.232 666.073 146.244 663.878C145.809 667.683 145.884 675.458 145.816 679.593C145.631 689.763 145.522 699.934 145.489 710.106C145.484 712.614 145.907 721.288 145.339 722.939L144.45 722.798C143.432 718.607 144.244 671.605 144.381 664.509C145.218 663.608 146.678 663.615 148.126 663.339Z"/><path fill="#080808" d="M222.95 570.214C224.695 570.382 225.932 570.266 227.182 571.39C227.869 578.74 227.69 602.967 227.318 610.678C225.233 610.704 224.855 611.07 223.369 610.04C222.135 599.64 222.782 580.826 222.95 570.214Z"/><path fill="#080808" d="M276.103 605.684L277.574 605.945C279.229 608.451 278.328 628.149 277.92 632.052C277.868 632.543 275.484 633.402 274.913 633.65L272.279 632.795C271.634 629.516 271.888 611.163 272.122 607.187C273.259 606.02 274.29 606.109 276.103 605.684Z"/><path fill="#080808" d="M332.365 628.554C332.256 624.417 331.496 602.139 332.694 600.116C334.511 598.74 333.676 599.049 335.841 598.831C338.421 600.891 336.402 620.021 338.155 626.182L339.128 626.531L341.16 627.671L332.365 628.554Z"/><defs><linearGradient id="gradient_5" gradientUnits="userSpaceOnUse" x1="251.59497" y1="589.97095" x2="262.07773" y2="593.60394"><stop offset="0" stop-color="#1F1C24"/><stop offset="1" stop-color="#32342F"/></linearGradient></defs><path fill="url(#gradient_5)" d="M257.515 576.741C259.021 577.339 258.44 576.876 259.383 578.092C260.273 583.439 259.445 599.057 259.576 605.07C259.609 606.596 258.766 606.829 257.558 607.739C256.719 607.372 255.794 606.875 254.965 606.458C254.228 603.742 254.732 583.303 254.513 579.131C254.453 577.977 256.348 577.34 257.515 576.741Z"/><path d="M216.6 613.317C217.642 614.563 217.286 633.147 217.292 636.171L211.709 637.006C210.836 635.592 210.894 616.935 211.325 614.454C212.847 613.366 214.65 613.472 216.6 613.317Z"/><path fill="#080808" d="M254.172 608.587C256.077 608.453 258.06 608.008 259.508 609.003C260.089 611.861 259.615 630.175 259.56 634.138C257.6 634.331 256.178 634.752 254.584 633.77C253.947 630.154 254.211 613.646 254.172 608.587Z"/><path fill="#363537" d="M324.316 555.032C323.631 555.548 323.126 555.764 323.115 556.785C323.007 567.047 323.329 577.424 323.239 587.694C323.211 590.971 323.539 595.375 322.943 598.357C321.558 599.106 322.28 599.009 320.698 598.572C320.268 596.383 320.353 593.743 320.383 591.501C320.544 579.47 320.085 567.402 320.17 555.38C321.846 554.14 322.345 554.449 324.618 554.202L324.316 555.032Z"/><path fill="#080808" d="M266.123 606.738C267.703 606.772 268.183 606.83 269.738 607.12C270.927 608.75 270.339 630.736 269.964 633.867C268.101 633.649 266.886 633.88 265.85 632.768C265.573 628.882 265.173 609.517 266.123 606.738Z"/><path fill="#080808" d="M224.152 611.646C225.794 611.862 225.979 611.809 227.294 612.723C227.728 615.919 228.053 634.458 226.509 636.631C225.402 636.411 224.576 636.112 223.516 635.758C223.385 635.44 223.117 634.855 223.146 634.557C223.617 629.789 221.781 615.091 224.152 611.646Z"/><path d="M395.793 543.303C398.101 545.361 398.11 587.741 395.959 590.325C395.26 589.044 395.056 586.132 395.196 584.793C395.906 578.039 393.123 547.368 395.793 543.303Z"/><path d="M328.113 560.176L329.902 560.876C331.286 563.741 330.59 593.221 330.385 598.121L328.691 597.408C327.225 594.079 327.689 565.131 328.113 560.176Z"/><path fill="#080808" d="M599.664 459.177L600.986 459.056C602.403 459.724 601.818 459.231 602.656 460.731L602.225 461.953C598.645 465.337 588.535 465.017 582.242 467.717C581.375 468.926 581.794 469.702 581.947 471.525C581.976 471.903 581.847 472.805 581.802 473.224L581.234 473.129C580.572 469.994 580.561 466.825 580.445 463.624L599.664 459.177Z"/><path d="M261.993 561.884L263.3 562.297C264.537 564.282 263.562 600.846 263.586 606.386C262.319 606.134 262.85 606.407 261.904 605.604C260.944 601.636 261.374 567.452 261.993 561.884Z"/><path fill="#363537" d="M320.24 600.184L322.704 600.933C323.977 602.91 323.339 625.569 323.3 629.649C321.67 629.412 321.568 629.373 320.021 628.784C319.382 623.195 320.15 606.825 320.24 600.184Z"/><path fill="#080808" d="M125.058 752.434C130.143 751.795 184.029 758.335 189.105 760.52C183.202 761.059 130.285 753.971 125.058 752.434Z"/><path fill="#080808" d="M606.443 458.012C611.765 459.819 619.657 462.884 624.555 465.895C625.746 466.627 625.51 468.003 625.634 469.574C622.457 469.221 610.893 465.327 608.025 462.952C606.283 461.509 606.636 460.25 606.443 458.012Z"/><path fill="#363537" d="M157.804 739.988C162.073 739.146 217.164 745.61 217.901 746.294C208.034 747.005 198.516 745.006 188.675 744.03C178.481 743.018 168.358 741.892 158.189 740.635L157.804 739.988Z"/><path fill="#363537" d="M141.454 746.157C149.818 745.442 194.554 751.356 203.147 753.191C198.471 754.121 147.108 748.013 141.454 746.157Z"/><path d="M328.143 599.535L329.629 599.834C331.334 601.914 330.635 624.72 330.404 628.92L328.505 628.271C326.977 624.709 327.904 604.461 328.143 599.535Z"/><path d="M346.474 557.313C349.408 558.108 348.681 558.764 348.652 561.582C348.536 573.043 348.612 584.489 348.763 595.949C348.161 595.822 347.612 595.839 347.511 595.34C346.586 590.777 346.031 560.051 346.474 557.313Z"/><path d="M219.201 570.451C219.678 570.744 220.247 571.21 220.691 571.549C221.159 575.119 220.864 583.407 220.843 587.309C220.827 595.386 220.897 603.462 221.053 611.537L219.686 611.122C218.523 609.006 219.125 575.335 219.201 570.451Z"/><path d="M339.128 626.531C337.813 623.705 338.186 602.673 338.937 599.225L339.826 598.837C340.852 599.767 340.873 599.658 340.913 601.476C341.103 610.158 340.661 619.005 341.16 627.671L339.128 626.531Z"/><path fill="#636264" d="M195.136 657.331C197.384 657.119 199.32 656.779 201.318 657.718C198.779 658.449 188.054 658.588 184.758 658.851C172.074 659.864 159.255 660.161 146.666 662.116C144.471 662.28 143.569 662.5 141.455 661.824L141.773 661.334C158.936 658.931 177.858 658.536 195.136 657.331Z"/><path d="M343.164 554.032C344.955 556.509 345.1 591.375 344.374 596.25L343.444 595.335C342.944 591.281 342.461 556.506 343.164 554.032Z"/><path d="M261.814 607.021L262.857 607.419C264.575 609.527 263.816 629.688 263.788 634.261L262.305 633.974C260.77 631.29 261.476 611.095 261.814 607.021Z"/><path fill="#080808" d="M601.061 464.953L602.014 465.749L601.883 466.971C599.845 469.268 589.365 471.44 585.706 472.382C584.625 471.254 584.93 471.92 584.859 470.276C587.137 467.826 597.437 465.842 601.061 464.953Z"/><path d="M424.949 588.167L425.782 588.479C427.271 590.687 426.495 616.239 426.354 620.847L425.577 620.515C424.225 618.429 424.668 592.132 424.949 588.167Z"/><path fill="#818084" d="M325.58 557.528C327.274 560.201 326.681 594.257 325.867 598.746C324.3 595.79 324.906 562.403 325.58 557.528Z"/><path d="M368.514 594.694L369.37 595.707C369.741 599.628 369.779 621.787 369.256 625.475C368.944 625.234 368.278 624.685 368.223 624.344C367.389 619.173 367.285 598.27 368.514 594.694Z"/><path fill="#363537" d="M606.569 465.78C609.824 466.272 618.536 469.018 621.315 471.105C622.342 471.876 622.105 472.964 622.21 474.363C618.083 473.072 613.435 471.742 609.58 469.84C607.145 468.639 607.301 468.051 606.569 465.78Z"/><path d="M450.04 530.588L450.468 530.765L450.738 531.862C448.833 533.281 428.718 536.256 425.128 536.85L424.806 536.878L424.25 536.396C425.62 534.39 445.841 531.397 450.04 530.588Z"/><path d="M219.602 612.297L220.544 612.939C221.675 615.366 221.393 633.616 220.819 636.884C220.241 636.535 219.629 636.336 219.528 635.81C218.815 632.075 218.558 615.152 219.602 612.297Z"/><path fill="#080808" d="M130.522 584.25C129.996 586.933 130.129 587.093 130.848 589.683L131.021 590.329C131.059 590.457 131.096 590.586 131.134 590.714C127.173 589.177 122.182 590.07 118.643 587.844L118.684 587.036C121.013 585.539 127.423 584.78 130.522 584.25Z"/><path fill="#A9A9AD" d="M258.719 573.904C259.639 573.994 259.188 573.859 259.984 574.588C257.758 576.727 254.842 574.723 252.598 576.635C253.927 580.999 253.193 600.31 253.105 606.069L252.643 606.568L252.15 606.245C252.121 602.173 251.47 577.277 252.47 575.128C254.604 574.068 256.371 574.085 258.719 573.904Z"/><path d="M424.883 564.925C424.765 559.878 423.644 542.505 425.999 539.014C426.638 548.593 426.621 553.522 426.389 563.082C425.991 563.662 425.627 564.229 425.334 564.87L424.883 564.925Z"/><path d="M420.303 540.271L422.21 540.124L423.177 541.032C421.768 542.541 405.652 544.596 401.649 545.442C400.722 545.539 400.495 545.471 399.548 545.401L399.276 544.715C402.113 543.254 416.588 540.897 420.303 540.271Z"/><path fill="#080808" d="M202.761 704.541C204.474 707.276 204.027 726.517 203.641 730.468L202.713 731.144L202.005 730.622C201.579 726.581 202.553 709.514 202.761 704.541Z"/><path d="M343.48 597.951C345.539 598.898 344.703 622.927 344.756 626.585L343.944 626.915C342.529 624.925 343.142 601.717 343.48 597.951Z"/><path d="M450.447 534.626L450.713 535.317C448.738 537.507 432.521 540.061 428.878 540.298L428.407 539.608C429.767 537.853 446.965 535.261 450.447 534.626Z"/><path d="M391.995 545.352C392.4 545.382 392.651 545.605 393.064 545.836L392.879 546.757C389.82 548.053 377.309 550.216 373.602 550.753C372.238 550.915 372.85 551.037 371.686 550.497C373.155 548.425 388.682 546.01 391.995 545.352Z"/><path fill="#363537" d="M510.868 733.274C508.062 733.409 500.558 734.036 498.266 733.363L498.462 732.418C501.575 729.945 508.308 728.814 511.305 731.628L510.868 733.274Z"/><path d="M506.159 509.85C510.34 510.264 526.997 515.734 531.102 517.548C530.563 517.494 530.024 517.431 529.487 517.358C524.126 516.636 512.888 513.885 507.485 511.599C506.961 510.908 506.519 510.325 506.159 509.85Z"/><path d="M424.883 564.925L425.334 564.87C425.627 564.229 425.991 563.662 426.389 563.082C426.488 567.786 427.101 582.381 425.855 585.883L425.561 586.119C424.534 582.358 424.835 569.119 424.883 564.925Z"/><path fill="#363537" d="M579.284 616.142C579.277 612.836 578.981 595.778 580.063 594.113C582.222 597.85 580.116 609.461 581.269 615.829L581.369 616.354L579.284 616.142Z"/><path fill="#818084" d="M325.731 599.819C325.887 599.981 326.55 601.059 326.549 601.092C326.253 609.212 326.175 621.099 326.157 628.809C325.903 628.624 325.351 628.28 325.31 628.021C324.606 623.532 324.711 602.725 325.731 599.819Z"/><path fill="#A9A9AD" d="M280.675 572.379C281.536 574.194 281.245 600.945 280.839 604.018C279.413 601.447 279.619 575.319 280.675 572.379Z"/><path fill="#080808" d="M507.924 667.071C505.347 665.216 501.892 667.036 498.561 665.213L498.462 664.249C500.925 661.891 505.334 662.686 508.272 663.76C509.451 665.082 509.172 666.123 508.763 667.925L507.924 667.071Z"/><path d="M364.303 551.143L365.305 551.246L364.776 552.063C360.3 553.447 351.693 554.717 346.78 555.574L345.863 555.118L346.137 554.201C348.601 553.128 360.896 551.627 364.303 551.143Z"/><path fill="#636264" d="M428.73 542.118C429.014 542.429 429.298 542.74 429.582 543.051C429.539 549.918 429.521 563.825 429.512 570.032C427.949 567.803 427.82 544.711 428.73 542.118Z"/><path d="M629.401 651.239C635.485 651.56 640.944 652.04 647.009 652.669L646.88 652.97C641.684 653.642 635.311 653.762 629.979 653.988L629.401 651.239Z"/><path fill="#363537" d="M220.319 566.52L221.627 566.215L222.19 566.717L221.965 567.656C218.854 569.369 218.521 570.41 215.738 570.161L209.16 568.687L220.319 566.52Z"/><path fill="#363537" d="M614.975 545.026C614.089 543.267 608.528 542.706 605.712 539.712C608.072 539.61 614.257 541.388 616.865 542.041C616.286 543.203 615.928 544.417 614.975 545.026Z"/><path fill="#363537" d="M157.282 642.181C159.957 642.027 172.716 641.098 174.52 641.712C171.944 643.248 162.264 643.668 158.969 643.682L157.282 642.181Z"/><path fill="#818084" d="M252.588 618.595C253.592 621.296 253.673 633.258 252.002 635.59C250.757 633.035 251.959 621.606 252.588 618.595Z"/><path fill="#363537" d="M229.177 569.692C228.967 568.625 228.705 567.668 228.433 566.618L227.597 567.698L227.856 566.7C227.689 567.923 227.776 567.93 227.097 568.932L225.518 569.066C223.523 568.103 224.127 568.709 223.158 566.848L223.532 566.012C225.208 565.488 226.773 565.096 228.469 564.67C229.534 566.598 229.611 567.446 229.177 569.692Z"/><path d="M519.196 618.494C515.163 618.081 511.136 617.789 507.21 616.783C508.843 616.173 518.255 616.422 520.331 616.578L519.196 618.494Z"/><path fill="#363537" d="M339.028 555.609C340.184 555.414 339.652 555.339 340.685 555.77C339.558 557.386 332.175 558.355 329.792 558.786C329.166 558.993 329.248 558.891 328.51 558.795L328.642 558.213C332.479 556.812 335.062 556.376 339.028 555.609Z"/><path fill="#080808" d="M523.371 643.925C526.027 643.823 529.112 643.523 531.468 644.687L531.823 645.833C527.573 646.536 525.759 647.812 523.371 643.925Z"/><path fill="#636264" d="M578.213 648.109C581.056 647.681 588.782 647.235 590.913 648.949C585.985 648.987 581.801 650.607 578.213 648.109Z"/><path d="M578.683 746.177C580.686 745.859 587.712 745.812 588.958 747.107C586.078 747.531 582.419 748.339 579.673 747.779L578.683 746.177Z"/><path fill="#080808" d="M460.454 643.504C462.451 643.298 463.575 643.141 465.618 643.31C467.081 644.419 466.623 643.888 467.006 646.233C463.637 646.089 461.959 646.741 460.454 643.504Z"/><path fill="#363537" d="M485.805 512.984L486.831 513.939C487.374 517.21 487.047 521.529 486.921 524.925C485.165 522.794 485.741 515.976 485.805 512.984Z"/><path fill="#080808" d="M453.748 643.557C456.126 643.462 457.83 642.995 459.509 644.178L459.453 645.649C457.137 645.691 455.27 646.111 453.525 645.016L453.748 643.557Z"/><path fill="#363537" d="M280.026 570.859C278.534 572.006 274.667 573.465 272.98 572.217C274.562 570.485 277.812 570.534 280.144 570.418L280.026 570.859Z"/><path fill="#636264" d="M674.481 535.642L675.519 536.392C676.222 538.406 675.841 541.498 675.724 543.766C673.908 541.929 674.427 538.116 674.481 535.642Z"/><path fill="#CFCFD1" d="M398.915 559.075C400.774 561.32 399.858 565.951 399.444 568.638C398.58 565.449 398.832 562.368 398.915 559.075Z"/><path fill="#363537" d="M532.14 644.7C535.235 644.328 536.689 644.078 539.142 645.971C535.761 646.296 534.673 646.699 532.14 644.7Z"/><path fill="#818084" d="M497.296 656.671C500.302 656.206 502.3 656.362 505.104 657.349C501.862 657.816 500.314 657.907 497.296 656.671Z"/><path fill="#A9A9AD" d="M242.383 759.101C245.666 759.052 255.395 758 257.174 758.239L257.398 758.98C257.664 759.829 257.688 759.933 258.299 760.614C261.739 761.463 268.523 761.571 272.493 761.936L304.41 764.973C314.641 765.924 419.315 776.019 422.046 777.486C407.823 777.313 382.193 774.08 367.339 772.542L291.138 765.242C274.989 763.647 257.499 760.32 241.688 762.008L244.237 760.584L244.284 760.113C241.556 760.753 240.469 761.072 237.67 760.973L237.107 760.949C238.948 759.872 239.364 759.906 241.521 759.521L242.383 759.101Z"/><path fill="#818084" d="M106.05 670.297C105.68 667.269 105.173 665.284 106.902 662.86L108.193 663.085C108.305 667.525 108.42 696.989 107.316 698.837C106.548 695.811 107.171 680.326 107.029 675.681C106.08 674.224 107.085 672.913 106.05 670.297Z"/><path fill="#363537" d="M106.05 670.297C105.68 667.269 105.173 665.284 106.902 662.86C107.257 667.232 107.111 671.307 107.029 675.681C106.08 674.224 107.085 672.913 106.05 670.297Z"/><path fill="#818084" d="M579.281 460.56C580.158 450.25 580.389 438.121 581.398 428.348L581.939 428.106C582.295 433.151 580.431 459.933 581.737 461.519C581.797 461.592 581.891 461.629 581.967 461.685L581.019 461.872L579.281 460.56Z"/><path fill="#818084" d="M705.833 748.157C710.906 747.348 733.895 743.75 738.515 744.171L738.493 744.792C737.659 745.107 717.975 747.69 716.913 747.645L716.762 748.05C717.931 748.747 718.467 748.406 719.721 748.808C715.054 748.844 711.502 747.981 705.833 748.157Z"/><path fill="#818084" d="M80.7704 727.185C77.7238 727.291 69.0253 727.591 66.9278 725.781C69.1986 725.227 72.9071 726.785 74.9834 725.19C70.9817 724.393 66.066 724.387 62.376 723.132L62.7275 722.69C65.5987 722.654 76.1065 723.157 77.9132 724.947L77.4788 726.276C78.4437 727.091 79.4735 727.034 80.7704 727.185Z"/><path fill="#636264" d="M673.865 654.34L676.083 655.044C674.459 657.65 676.809 667.543 675.005 674.109C674.431 673.221 673.969 656.812 673.865 654.34Z"/><path fill="#818084" d="M68.8486 745.114C67.4664 745.606 48.6875 747.053 46.378 747.005C48.9395 745.781 64.1778 744.25 67.883 743.823C68.215 744.33 68.4134 744.763 68.8486 745.114Z"/><path fill="#818084" d="M676.015 534.565C676.033 529.65 675.947 526.532 676.843 521.66C677.618 523.061 677.414 532.545 677.368 534.601L676.015 534.565Z"/><path fill="#818084" d="M627.645 464.557C627.717 462.387 627.735 458.719 628.104 456.704L628.985 456.363L628.942 455.768L628.332 455.564L628.799 454.891C629.624 458.238 629.175 461.793 628.996 465.285L627.645 464.557Z"/><path fill="#818084" d="M115.6 758.451C112.552 758.054 108.311 757.496 105.554 756.328L105.459 755.995C108.649 758.051 106.111 755.659 107.819 755.916C110.321 756.294 112.87 756.689 115.375 757.074L115.6 758.451Z"/><path fill="#818084" d="M103.177 570.969C103.182 568.363 103.987 564.58 104.464 561.898C105.061 563.427 105.032 568.524 105.093 570.406C104.321 570.301 104.506 570.3 103.704 570.362L103.177 570.969Z"/><path fill="#A9A9AD" d="M672.873 533.563C673.115 531.754 673.29 530.64 673.738 528.875L674.231 528.9C674.453 530.763 674.601 532.146 674.666 534.038L672.873 533.563Z"/></svg>